<?xml version="1.0" encoding="iso-8859-1"?>
<!-- Generator: Adobe Illustrator 18.0.0, SVG Export Plug-In . SVG Version: 6.00 Build 0)  -->
<!DOCTYPE svg PUBLIC "-//W3C//DTD SVG 1.1//EN" "http://www.w3.org/Graphics/SVG/1.1/DTD/svg11.dtd">
<svg version="1.1" id="Capa_1" xmlns="http://www.w3.org/2000/svg" xmlns:xlink="http://www.w3.org/1999/xlink" x="0px" y="0px"
	 viewBox="0 0 403.64 403.64" style="enable-background:new 0 0 403.64 403.64;" xml:space="preserve">
<path d="M381.259,107.879l-122.07-17.005c-7.417-1.033-14.976-1.557-22.465-1.557c-15.042,0-30.005,2.083-44.475,6.191
	L25.193,142.94C13.42,146.283,4.367,155.4,0.776,166.665c-2.294,7.196,0.636,15.038,6.949,19.185h0l-0.633,96.247
	c-0.017,2.497,1.812,4.623,4.282,4.981l185.57,26.922c1.483,0.215,2.995,0.324,4.494,0.324c4.341,0,8.558-0.881,12.534-2.619
	l186.669-81.569c1.821-0.795,2.998-2.594,2.998-4.582v-91.96C403.64,120.711,394.019,109.657,381.259,107.879z M393.64,180.809
	c-5.885-1.07-14.623-1.677-21.784,1.904c-3.585,1.793-8.225,4.808-12.711,7.725c-3.601,2.34-8.602,5.591-11.71,7.173
	c-0.45-0.495-0.985-0.917-1.598-1.252c-4.648-2.543-10.302,1.08-21.568,8.291c-3.818,2.444-7.767,4.97-11.657,7.194
	c-13.861,7.92-35.062,12.8-40.764,10.66c-7.956-2.983-18.261,3.308-29.173,9.969c-3.866,2.36-7.519,4.59-10.819,6.24
	c-4.496,2.248-9.83,3.064-15.477,3.928c-8.104,1.239-16.485,2.521-22.72,8.409c-3.3,3.116-10.247-0.899-18.991-6.469
	c-3.799-2.419-7.387-4.705-10.719-6.038c-7.987-3.193-23.566-1.573-36.086-0.27c-4.876,0.507-9.477,0.99-11.604,0.915
	c-8.49-0.286-23.008-3.068-40.88-7.834c-12.23-3.262-19.599-4.085-24.979-4.686c-3.261-0.365-5.616-0.628-7.936-1.291
	c-5.489-1.568-17.903-2.021-24.987-2.151l0.066-9.982c9.801-1.722,23.984-2.64,29.863,1.102c8.379,5.332,17.746,5.242,25.99,5.158
	c3.96-0.038,7.703-0.076,10.714,0.526c3.26,0.652,7.122,2.908,10.857,5.09c6.539,3.819,13.95,8.149,20.604,4.348
	c0.974-0.557,1.948-1.149,2.922-1.743c7.008-4.272,9.161-4.964,12.063-2.063c7.719,7.719,21.432,3.229,29.624,0.546
	c1.618-0.53,3.146-1.03,3.859-1.173c2.754-0.362,13.555,4.719,18.052,8.091c1.722,1.291,4.128,1.811,6.886,1.811
	c5.448,0,12.27-2.027,17.894-4.138c0.33-0.124,0.635-0.28,0.931-0.471c7.761-5.021,18.04-10.758,21.111-11.269
	c1.59-0.264,5.226,0.053,8.432,0.333c7.943,0.695,16.154,1.413,20.869-2.36c2.334-1.867,4.272-4.461,5.982-6.75
	c0.348-0.465,0.764-1.022,1.177-1.555c2.574,2.476,5.505,3.883,8.744,4.19c5.12,0.485,10.626-1.897,16.337-7.09
	c15.394-13.995,18.394-11.891,18.514-11.795c7.119,5.696,16.178-0.812,22.792-5.563c1.115-0.801,2.168-1.558,3.104-2.182
	c5.279-3.519,19.27-7.16,22.227-7.16c6.022,0,22.651-8.425,27.773-11.84c2.926-1.95,6.649-2.969,8.774-3.121V180.809z
	 M17.414,233.228c8.099,0.159,18.531,0.687,22.305,1.765c3.125,0.893,6.113,1.227,9.573,1.613c5.349,0.598,12.005,1.342,23.513,4.41
	c13.146,3.505,31.297,7.768,43.119,8.166c2.819,0.093,7.296-0.372,12.976-0.963c10.212-1.063,25.645-2.669,31.336-0.392
	c2.464,0.985,5.668,3.026,9.061,5.188c6.359,4.051,14.328,9.127,21.682,9.127c3.386,0,6.641-1.076,9.549-3.822
	c3.965-3.746,10.474-4.741,17.365-5.795c6.162-0.942,12.534-1.917,18.438-4.868c3.679-1.839,7.684-4.285,11.558-6.649
	c6.38-3.894,17.057-10.415,20.45-9.141c9.995,3.75,34.673-3.019,49.236-11.34c4.109-2.348,8.348-5.061,12.087-7.454
	c3.023-1.935,6.757-4.324,9.563-5.889c0.756-0.422,1.68-0.362,2.381,0.146c0.208,0.151,0.428,0.289,0.658,0.415
	c4.501,2.443,10.1-0.971,22.333-8.923c4.254-2.765,8.652-5.624,11.733-7.165c5.106-2.552,12.561-1.718,17.312-0.658v14.555
	c-16.089,7.062-34.493,13.873-39.677,14.068c-0.719-0.569-1.574-0.982-2.521-1.206c-5.086-1.207-15.541,2.855-53.886,27.181
	c-1.307,0.829-2.365,1.5-3.115,1.969c-3,1.875-15.09,6.68-27.64,10.575c-12.087,3.752-19.552,5.136-23.613,5.467
	c-1.205,0.098-2.289-0.593-2.834-1.673c-0.768-1.522-1.933-2.376-2.599-2.766c-5.01-2.937-13.432-0.53-43.531,20.541
	c-1.751,1.225-5.676,1.446-10.495,0.592c-11.613-2.059-23.876-8.973-25.478-11.269c-3.705-5.558-10.874-3.332-19.175-0.752
	c-8.938,2.777-20.064,6.233-27.171,1.394c-4.914-3.347-16.455-5.863-24.845-7c-16.561-2.245-21.874,0.108-23.959,1.915
	c-0.629,0.544-1.424,0.858-2.253,0.797c-4.923-0.364-16.762-4.97-27.912-12.69c-6.354-4.398-11.447-4.006-14.603-2.903
	c-0.382,0.133-0.719,0.298-1.034,0.479L17.414,233.228z M393.64,154.179c-5.082,0.144-10.826,2.461-14.321,4.79
	c-6.092,4.061-19.444,9.968-22.227,10.16c-5.202,0-21.197,4.456-27.773,8.84c-1.082,0.721-2.204,1.527-3.392,2.38
	c-2.43,1.746-8.881,6.385-10.712,5.875c-8.441-6.755-20.123,1.875-31.486,12.205c-3.44,3.127-6.526,4.738-8.664,4.534
	c-0.854-0.081-2.194-0.463-3.973-2.834c-1.909-2.545-4.283-2.927-5.532-2.927c-0.002,0-0.004,0-0.006,0
	c-4.069,0.004-6.643,3.449-9.367,7.096c-1.352,1.809-2.883,3.858-4.212,4.922c-1.744,1.262-9.859,0.552-13.758,0.212
	c-4.349-0.379-8.103-0.708-10.947-0.235c-6.388,1.065-20.573,9.959-24.426,12.432c-4.433,1.618-9.328,2.862-12.439,3.243
	c-1.414,0.173-2.839-0.141-4.039-0.909c-4.797-3.072-17.262-10.138-24.255-8.737c-1.33,0.266-2.968,0.802-5.042,1.481
	c-4.809,1.575-16.065,5.26-19.442,1.886c-8.846-8.846-18.168-3.164-24.338,0.595c-0.893,0.544-1.785,1.089-2.678,1.599
	c-1.635,0.935-7.029-2.216-10.599-4.3c-4.444-2.597-9.041-5.281-13.94-6.261c-4.03-0.806-8.276-0.764-12.773-0.72
	c-7.205,0.07-14.646,0.145-20.522-3.595c-9.234-5.875-25.997-4.282-35.165-2.812l0.084-12.849c3.594,1.138,7.726,1.879,12.396,1.879
	c8.588,0,15.921-2.703,22.392-5.088c7.052-2.6,13.145-4.843,19.234-3.104c5.677,1.622,9.541,5.167,13.633,8.92
	c4.77,4.376,10.176,9.336,18.693,11.161c6.971,1.491,16.464-1.515,27.459-4.998c13.972-4.426,29.807-9.443,39.26-4.466
	c7.498,3.946,11.851,7.741,15.347,10.79c4.809,4.193,9.016,7.86,17.107,7.86c0.721,0,1.473-0.029,2.259-0.089
	c8.171-0.628,12.411-4.495,16.899-8.588c4.132-3.767,8.813-8.036,18.497-11.725c10.388-3.957,17.494-3.934,24.401-3.92
	c6.298,0.019,12.814,0.035,20.676-3.11c7.477-2.991,12.174-8.434,16.717-13.698c5.563-6.447,10.368-12.014,19.923-12.97
	c8.432-0.843,14.469,0.012,20.307,0.838c7.425,1.051,14.434,2.044,23.777-1.07c9.419-3.14,19.444-13.11,26.967-22.061V154.179z
	 M27.923,152.56l167.057-47.432c13.582-3.856,27.626-5.812,41.744-5.812c7.029,0,14.123,0.492,21.086,1.461l122.069,17.005
	c4.508,0.628,8.371,3.145,10.849,6.671c-8.253,10.743-19.187,22.255-27.217,24.931c-7.109,2.37-12.187,1.651-19.213,0.656
	c-6.125-0.867-13.069-1.851-22.703-0.887c-13.524,1.353-20.418,9.339-26.499,16.386c-3.933,4.557-7.647,8.861-12.861,10.946
	c-6.06,2.424-11.093,2.41-16.935,2.395c-7.444-0.013-15.868-0.042-27.988,4.575c-11.457,4.365-17.362,9.749-21.674,13.68
	c-3.99,3.638-6.188,5.642-10.93,6.007c-5.423,0.418-7.224-1.149-12.026-5.337c-3.684-3.212-8.729-7.611-17.261-12.102
	c-13.149-6.919-31.099-1.234-46.938,3.783c-8.832,2.798-17.966,5.691-22.344,4.753c-5.857-1.255-9.645-4.729-14.029-8.752
	c-4.545-4.169-9.696-8.896-17.645-11.167c-9.235-2.639-17.474,0.399-25.441,3.336c-5.963,2.198-12.129,4.471-18.933,4.471
	c-6.925,0-12.527-2.178-16.442-4.44c-2.961-1.71-4.275-5.273-3.171-8.509C13.173,161.283,19.604,154.922,27.923,152.56z
	 M209.969,302.541c-3.641,1.591-7.655,2.134-11.589,1.562l-181.26-26.296l0.069-10.526c0.015-2.282,0.736-4.533,2.185-6.297
	c0.647-0.789,1.409-1.453,2.262-1.752c1.744-0.607,4.014,0.581,5.61,1.686c0.327,0.227,32.446,22.258,42.298,11.417
	c5.094-2.195,31.023,1.715,36.733,5.604c11.097,7.558,25.356,3.126,35.767-0.108c2.946-0.916,6.854-2.13,8.648-2.253
	c5.059,5.905,20.136,12.475,30.738,14.47c2.747,0.517,5.28,0.775,7.594,0.775c4.495,0,8.156-0.975,10.935-2.92
	c19.493-13.645,27.953-17.975,31.602-19.253c0.546,1.395,1.542,2.596,2.91,3.446c2.06,1.28,6.884,4.277,34.149-4.051
	c12.861-3.929,26.822-9.311,31.122-11.998c0.763-0.477,1.841-1.161,3.172-2.005c27.987-17.755,39.526-23.561,44.259-25.231
	c0.841-0.297,1.743-0.22,2.565,0.125c4.752,1.993,13.583-0.591,28.028-6.08c5.882-2.235,11.61-4.607,15.873-6.421v5.848
	L209.969,302.541z"/>
<g>
</g>
<g>
</g>
<g>
</g>
<g>
</g>
<g>
</g>
<g>
</g>
<g>
</g>
<g>
</g>
<g>
</g>
<g>
</g>
<g>
</g>
<g>
</g>
<g>
</g>
<g>
</g>
<g>
</g>
</svg>
